<svg width="531" height="406" viewBox="0 0 531 406" fill="none" xmlns="http://www.w3.org/2000/svg">
<g id="Man-riding bike">
<path id="Vector" d="M105.296 59.703C102.545 63.1425 101.486 67.9784 100.301 72.5247C90.7624 109.164 67.257 138.635 40.4883 159.685C29.1522 168.602 15.3512 180.56 17.8313 196.547C19.1667 205.133 25.0255 211.453 29.3782 218.446C38.5102 233.088 41.4723 252.991 37.1196 270.519C32.1695 290.463 18.3333 309.072 22.6157 329.238C25.2564 341.651 34.2228 350.485 42.8428 358.078C56.2908 369.915 70.1671 381.004 84.4719 391.345C94.0608 398.276 104.262 405.02 115.438 405.9C125.278 406.675 134.917 402.822 144.26 399.021C152.423 395.695 160.792 392.235 167.384 385.573C171.686 381.223 175.115 375.612 179.894 372.053C191.12 363.695 205.538 368.991 218.411 372.57C248.784 380.97 281.291 377.903 310.193 363.912C354.528 342.448 388.321 297.373 431.687 273.188C450.332 262.787 470.615 256.332 487.88 242.936C497.607 235.309 505.966 225.99 512.58 215.4C525.633 194.654 532.692 168.204 530.654 142.312C528.615 116.421 517.194 91.4702 499.256 76.8538C480.053 61.2081 455.8 58.2858 433.951 48.8933C411.389 39.1903 391.318 22.5154 368.972 12.1039C350.891 3.70263 331.213 -0.421525 311.382 0.0340227C291.552 0.489571 272.072 5.51326 254.372 14.7365C230.053 27.4082 205.403 56.9721 178.318 59.2168C159.02 60.7685 120.368 40.8661 105.296 59.703Z" fill="url(#paint0_linear)"/>
<path id="Vector_2" d="M3.72266 311.422C3.72266 313.419 3.93853 315.043 4.22469 315.043C4.51086 315.043 4.72673 313.424 4.72673 311.422C4.72673 309.421 4.45563 310.388 4.18955 310.388C3.92347 310.388 3.72266 309.431 3.72266 311.422Z" fill="#FFD037"/>
<path id="Vector_3" d="M1.03762 313.805C2.73953 314.762 4.22054 315.357 4.34605 315.093C4.47156 314.829 3.2014 313.878 1.49949 312.926C-0.202418 311.974 0.470315 312.667 0.339785 312.926C0.209255 313.185 -0.664292 312.848 1.03762 313.805Z" fill="#FFD037"/>
<g id="back-wheel">
<path id="Vector_4" d="M128.139 370.84L124.992 320.184L124.926 320.075L121.753 321.213L107.154 365.099L83.9349 348.139L120.92 320.515L120.955 320.406L121.166 320.329L123.551 318.544L84.7733 296.144L75.2747 306.902L76.7808 316.987L121.372 317.825V318.86L75.9474 318.022L74.2305 306.571L87.2333 291.851L106.687 268.473L107.034 269.44L111.15 264.785L126.442 267.609V266.983L127.447 267.014V267.795L150.219 271.995L128.988 315.757L125.89 318.068V318.327V318.617L174.99 300.99L169.161 348.165L127.492 320.82L126.026 319.972L150.595 360.77L128.139 370.84ZM126.131 322.046L129.068 369.309L149.175 360.32L126.131 322.046ZM85.6769 348.129L106.657 363.454L120.383 322.211L85.6769 348.129ZM127.005 319.341L128.054 319.946L168.393 346.427L173.815 302.531L127.005 319.341ZM123.44 315.617L124.7 317.712L124.921 317.546L126.427 268.654L111.497 265.902L107.4 270.557L123.44 315.617ZM85.5765 295.415L123.149 317.137L122.496 316.036L106.642 271.416L87.9713 292.554L85.5765 295.415ZM127.447 268.835L125.94 316.791L128.21 315.094L148.748 272.776L127.447 268.835Z" fill="#535461"/>
<path id="Vector_5" d="M183.209 305.132C181.195 295.915 177.119 287.311 171.305 280.006C169.147 277.291 166.767 274.771 164.191 272.475C154.288 263.666 141.826 258.494 128.761 257.771C115.696 257.048 102.768 260.815 92.0053 268.479C81.2428 276.144 73.2553 287.274 69.2962 300.121C65.3372 312.968 65.6309 326.806 70.1311 339.463C74.6313 352.12 83.0834 362.879 94.1608 370.052C105.238 377.225 118.314 380.406 131.336 379.095C144.357 377.785 156.588 372.057 166.108 362.81C175.629 353.564 181.899 341.323 183.937 328.008C184.411 324.873 184.649 321.705 184.65 318.533C184.653 314.025 184.17 309.53 183.209 305.132ZM125.379 364.275C116.226 364.265 107.297 361.351 99.8083 355.93C92.3192 350.508 86.6327 342.841 83.5219 333.973C80.4111 325.104 80.027 315.464 82.4219 306.362C84.8168 297.261 89.8744 289.14 96.9071 283.105C103.94 277.069 112.606 273.411 121.728 272.628C130.849 271.846 139.984 273.976 147.889 278.73C155.793 283.484 162.085 290.631 165.909 299.199C169.732 307.767 170.901 317.34 169.257 326.617C167.374 337.19 161.953 346.749 153.936 353.63C145.918 360.51 135.813 364.277 125.379 364.275V364.275Z" fill="#535461"/>
<path id="Vector_6" d="M125.38 324.95C128.932 324.95 131.811 321.984 131.811 318.325C131.811 314.666 128.932 311.699 125.38 311.699C121.829 311.699 118.949 314.666 118.949 318.325C118.949 321.984 121.829 324.95 125.38 324.95Z" fill="#535461"/>
</g>
<g id="front-wheel">
<path id="Vector_7" d="M344.142 372.837L340.999 322.202L340.934 322.093L337.761 323.231L323.157 367.096L299.938 350.131L336.933 322.507L336.968 322.398L337.179 322.321L339.564 320.537L300.786 298.136L291.283 308.894L292.789 318.98L337.37 319.797V320.831L291.945 319.993L290.238 308.558L303.236 293.843L322.675 270.481L323.021 271.448L327.138 266.793L342.47 269.622V268.996L343.474 269.027V269.808L366.247 274.008L344.996 317.79L341.898 320.102V320.361V320.65L391.002 303.024L385.174 350.199L343.505 322.854L342.039 322.005L366.608 362.808L344.142 372.837ZM342.134 324.043L345.071 371.306L365.178 362.317L342.134 324.043ZM301.685 350.131L322.665 365.456L336.391 324.214L301.685 350.131ZM343.013 321.343L344.062 321.948L384.401 348.43L389.823 304.534L343.013 321.343ZM339.448 317.619L340.708 319.714L340.929 319.549L342.435 270.657L327.505 267.895L323.408 272.55L339.448 317.619ZM301.599 297.422L339.172 319.145L338.519 318.044L322.665 273.424L303.989 294.567L301.599 297.422ZM343.454 270.843L341.948 318.783L344.217 317.087L364.756 274.768L343.454 270.843Z" fill="#535461"/>
<path id="Vector_8" d="M341.587 259.682C336.259 259.676 330.954 260.413 325.818 261.875C323.169 262.627 320.576 263.573 318.057 264.704C304.637 270.697 293.852 281.605 287.787 295.317C281.723 309.029 280.81 324.571 285.226 338.936C289.642 353.301 299.072 365.469 311.692 373.085C324.312 380.701 339.226 383.225 353.548 380.167C367.87 377.11 380.583 368.689 389.226 356.533C397.87 344.378 401.83 329.352 400.342 314.361C398.853 299.371 392.021 285.483 381.167 275.382C370.313 265.282 356.209 259.688 341.582 259.682H341.587ZM341.387 366.274C331.205 366.27 321.331 362.678 313.404 356.094C305.478 349.51 299.976 340.331 297.812 330.081C295.648 319.831 296.953 309.127 301.51 299.746C306.067 290.366 313.601 282.873 322.861 278.513C325.217 277.402 327.663 276.508 330.171 275.839C336.302 274.2 342.702 273.924 348.944 275.031C355.186 276.138 361.128 278.602 366.375 282.259C371.621 285.916 376.051 290.682 379.37 296.24C382.689 301.798 384.821 308.02 385.624 314.493C386.427 320.966 385.883 327.541 384.028 333.78C382.172 340.02 379.048 345.781 374.864 350.679C370.679 355.578 365.53 359.503 359.758 362.191C353.987 364.88 347.726 366.272 341.392 366.274H341.387Z" fill="#535461"/>
<path id="Vector_9" d="M339.349 325.159C342.901 325.159 345.78 322.193 345.78 318.534C345.78 314.875 342.901 311.908 339.349 311.908C335.797 311.908 332.918 314.875 332.918 318.534C332.918 322.193 335.797 325.159 339.349 325.159Z" fill="#535461"/>
</g>
<g id="man-bike">
<path id="Vector_10" d="M194.292 286.696L172.852 264.898L166.152 271.893L187.592 293.691L194.292 286.696Z" fill="#4E4E4E"/>
<path id="Vector_11" d="M177.965 254.467C177.965 254.467 190.41 247.702 195.22 243.347C198.115 240.738 201.228 238.396 204.523 236.35L220.136 226.559L252.769 223.973L254.275 229.662C254.275 229.662 256.785 237.937 231.683 245.178C206.581 252.419 194.03 263.798 194.03 263.798C194.03 263.798 177.965 269.467 177.965 254.467Z" fill="#DB8B8B"/>
<path id="Vector_12" opacity="0.1" d="M195.36 262.675C194.472 263.373 194.03 263.777 194.03 263.777C194.03 263.777 177.965 269.466 177.965 254.467C177.965 254.467 178.743 254.043 179.973 253.334C181.216 255.419 182.956 257.14 185.029 258.335C187.101 259.529 189.436 260.156 191.811 260.156H193.513L195.36 262.675Z" fill="black"/>
<path id="Vector_13" opacity="0.05" d="M253.803 232.514C252.407 235.561 247.593 240.567 231.683 245.155C211.295 251.036 199.186 259.637 195.36 262.673C194.472 263.371 194.03 263.775 194.03 263.775C194.03 263.775 177.965 269.464 177.965 254.465C177.965 254.465 178.743 254.041 179.973 253.332C183.703 251.227 191.6 246.608 195.205 243.324C198.1 240.714 201.213 238.372 204.508 236.326L220.121 226.535L225.935 226.075L252.754 223.949L254.26 229.639C254.26 229.639 254.611 230.751 253.803 232.514Z" fill="black"/>
<path id="Vector_14" opacity="0.1" d="M253.802 232.514C245.77 228.516 226.16 228.087 226.16 228.087L225.949 226.075L252.768 223.949L254.274 229.639C254.274 229.639 254.611 230.751 253.802 232.514Z" fill="black"/>
<path id="Vector_15" d="M226.161 227.052C226.161 227.052 249.757 227.569 255.781 232.741L252.769 170.158H220.137L226.161 227.052Z" fill="#ABB1D1"/>
<path id="Vector_16" opacity="0.05" d="M226.161 226.794C226.161 226.794 249.757 227.311 255.781 232.483L252.769 169.9H220.137L226.161 226.794Z" fill="black"/>
<path id="Vector_17" d="M245.118 188.759C245.118 188.759 304.182 186.691 305.387 194.557C306.592 202.424 246.323 199.109 246.323 199.109C246.323 199.109 241.503 194.138 245.118 188.759Z" fill="#535461"/>
<path id="Vector_18" opacity="0.1" d="M197.303 220.215V227.42C193.829 227.885 190.274 228.18 186.855 228.294V220.215H197.303Z" fill="black"/>
<path id="Vector_19" d="M196.523 212.462C195.057 212.345 193.599 212.143 192.155 211.857C186.492 210.74 172.214 208.397 168.374 212.374C163.554 217.34 165.161 226.034 178.018 227.275C190.875 228.516 212.975 225.206 217.398 220.236C217.398 220.215 209.4 213.481 196.523 212.462Z" fill="#535461"/>
<path id="Vector_20" opacity="0.1" d="M328.125 274.048C325.617 274.716 323.171 275.611 320.815 276.722L316.016 262.907C318.535 261.776 321.128 260.831 323.777 260.078L328.125 274.048Z" fill="black"/>
<path id="Vector_21" opacity="0.1" d="M306.502 201.988L296.702 204.988L294.945 199.935L304.188 194.551L306.502 201.988Z" fill="black"/>
<path id="Vector_22" opacity="0.1" d="M184.648 318.533C184.648 321.706 184.41 324.874 183.935 328.009C179.116 327.652 174.136 327.134 169.256 326.617C170.34 320.467 170.205 314.155 168.859 308.06C173.614 307.025 178.468 306.037 183.208 305.143C184.168 309.537 184.651 314.028 184.648 318.533V318.533Z" fill="black"/>
<path id="Vector_23" opacity="0.1" d="M197.303 302.768V313.769H186.855V304.459C190.47 303.812 193.984 303.238 197.303 302.768Z" fill="black"/>
<path id="Vector_24" opacity="0.1" d="M171.305 280.005L160.582 290.117C158.683 287.605 156.536 285.303 154.176 283.248L164.186 272.475C166.764 274.771 169.146 277.29 171.305 280.005V280.005Z" fill="black"/>
<path id="Vector_25" opacity="0.1" d="M126.185 324.95C129.737 324.95 132.616 321.984 132.616 318.325C132.616 314.666 129.737 311.699 126.185 311.699C122.633 311.699 119.754 314.666 119.754 318.325C119.754 321.984 122.633 324.95 126.185 324.95Z" fill="black"/>
<path id="Vector_26" opacity="0.1" d="M338.943 324.331C342.495 324.331 345.374 321.365 345.374 317.706C345.374 314.046 342.495 311.08 338.943 311.08C335.391 311.08 332.512 314.046 332.512 317.706C332.512 321.365 335.391 324.331 338.943 324.331Z" fill="black"/>
<path id="Vector_27" opacity="0.1" d="M194.292 286.696L172.852 264.898L166.152 271.893L187.592 293.691L194.292 286.696Z" fill="black"/>
<path id="Vector_28" d="M178.218 251.104L164.914 260.155L203.872 293.774C203.872 293.774 209.596 290.153 206.583 286.015C206.583 286.015 196.543 277.223 196.04 264.81L193.028 260.672H191.326C188.449 260.672 185.642 259.752 183.293 258.038C180.945 256.324 179.172 253.901 178.218 251.104V251.104Z" fill="#ABB1D1"/>
<path id="Vector_29" opacity="0.05" d="M245.118 188.759C245.118 188.759 304.182 186.691 305.387 194.557C306.592 202.424 246.323 199.109 246.323 199.109C246.323 199.109 241.503 194.138 245.118 188.759Z" fill="black"/>
<path id="Vector_30" d="M197.303 220.221H186.855V313.774H197.303V220.221Z" fill="#4E4E4E"/>
<path id="Vector_31" d="M194.492 245.885L304.188 210.699L307.802 219.394L195.295 259.131L194.492 245.885Z" fill="#4E4E4E"/>
<path id="Vector_32" d="M227.039 301.355L306.196 221.047L310.613 227.667L235.072 308.802L227.039 301.355Z" fill="#4E4E4E"/>
<path id="Vector_33" d="M341.555 314.601L335.932 317.911L296.702 204.988L294.945 199.935L304.188 194.551L306.502 201.988L341.555 314.601Z" fill="#4E4E4E"/>
<path id="Vector_34" d="M246.724 210.7L301.773 191.242C301.773 191.242 311.417 192.483 307.797 200.764L252.352 217.734C252.352 217.734 243.918 218.561 246.724 210.7Z" fill="#535461"/>
<path id="Vector_35" d="M129.802 318.342C129.802 318.342 214.185 295.585 221.013 304.269C227.84 312.953 235.075 324.549 213.798 328.686C192.522 332.824 128.211 321.647 128.211 321.647L129.802 318.342Z" fill="#4E4E4E"/>
<path id="Vector_36" d="M126.988 313.774L190.069 245.885L192.083 261.613L130.201 319.981L126.988 313.774Z" fill="#4E4E4E"/>
<path id="Vector_37" opacity="0.1" d="M225.025 324.953C232.126 324.953 237.882 319.022 237.882 311.707C237.882 304.391 232.126 298.461 225.025 298.461C217.924 298.461 212.168 304.391 212.168 311.707C212.168 319.022 217.924 324.953 225.025 324.953Z" fill="black"/>
<path id="Vector_38" d="M225.834 324.953C232.935 324.953 238.691 319.022 238.691 311.707C238.691 304.391 232.935 298.461 225.834 298.461C218.733 298.461 212.977 304.391 212.977 311.707C212.977 319.022 218.733 324.953 225.834 324.953Z" fill="#535461"/>
<path id="Vector_39" d="M222.402 310.709L222.398 310.712C220.888 311.875 220.579 314.079 221.709 315.635L231.913 329.693C233.042 331.249 235.182 331.567 236.691 330.403L236.695 330.4C238.205 329.237 238.514 327.033 237.385 325.477L227.18 311.419C226.051 309.864 223.912 309.546 222.402 310.709Z" fill="#6C63FF"/>
<path id="Vector_40" d="M283.897 127.749L282.702 143.322C282.564 145.295 282.589 147.276 282.777 149.244C282.933 150.987 282.777 154.039 281.12 158.694C278.993 164.64 277.894 170.924 277.872 177.261V194.986L266.325 192.917C266.325 192.917 266.827 168.091 264.819 163.954C262.811 159.816 266.325 123.094 266.325 123.094L283.897 127.749Z" fill="#DB8B8B"/>
<path id="Vector_41" opacity="0.05" d="M283.302 135.465L282.7 143.322C282.564 145.293 282.591 147.272 282.78 149.239C282.936 150.982 282.78 154.033 281.124 158.694C278.997 164.64 277.897 170.924 277.875 177.261V194.986L266.329 192.917C266.329 192.917 266.831 168.091 264.822 163.954C263.402 161.021 264.747 141.744 265.656 130.743C266.032 126.218 266.329 123.094 266.329 123.094L283.9 127.749L283.302 135.465Z" fill="black"/>
<path id="Vector_42" d="M226.673 246.707L222.33 272.154C221.783 275.552 220.943 278.892 219.82 282.136C217.275 289.305 218.901 299.354 220.136 304.837C220.684 307.257 221.14 308.788 221.14 308.788L208.087 316.029L204.071 312.926V310.857L203.569 264.825C200.557 257.584 201.561 246.723 203.569 242.585C204.14 241.225 204.542 239.797 204.764 238.333C205.768 232.789 206.079 225 206.079 225C206.079 225 214.112 211.035 223.651 220.345C227.165 223.774 228.5 228.258 228.781 232.551C229.273 239.901 226.673 246.707 226.673 246.707Z" fill="#DB8B8B"/>
<path id="Vector_43" opacity="0.1" d="M228.783 232.535C221.82 236.797 209.706 238.002 204.766 238.318C205.77 232.773 206.081 224.984 206.081 224.984C206.081 224.984 214.114 211.019 223.652 220.329C227.167 223.758 228.502 228.243 228.783 232.535Z" fill="black"/>
<path id="Vector_44" d="M245.74 219.811C240.401 222.74 235.356 226.205 230.679 230.155C222.646 236.879 202.564 237.396 202.564 237.396V229.638C203.067 220.328 194.532 209.984 182.985 181.02C175.61 162.524 177.653 152.056 180.093 146.884C181.479 143.962 182.985 142.746 182.985 142.746L245.74 155.159L247.984 162.09L252.768 176.882C252.768 176.882 235.197 177.917 232.185 179.468C229.173 181.02 231.181 194.985 231.181 194.985C228.168 209.467 245.74 219.811 245.74 219.811Z" fill="#ABB1D1"/>
<path id="Vector_45" opacity="0.1" d="M283.896 127.749L283.304 135.465C274.569 138.052 268.333 129.817 268.333 129.817C267.422 130.069 266.527 130.378 265.652 130.743C266.029 126.218 266.325 123.094 266.325 123.094L283.896 127.749Z" fill="black"/>
<path id="Vector_46" opacity="0.1" d="M247.986 162.09C247.75 164.505 247.75 166.021 247.75 166.021C247.75 166.021 236.203 175.848 216.623 160.849C197.044 145.849 179.473 149.987 179.473 149.987C179.473 149.987 179.678 148.787 180.095 146.884C181.481 143.962 182.987 142.746 182.987 142.746L245.742 155.159L247.986 162.09Z" fill="black"/>
<path id="Vector_47" d="M290.664 107.551C289.354 118.076 288.917 131.343 288.917 131.343C277.37 140.653 268.333 128.757 268.333 128.757C257.429 131.772 252.303 141.604 249.889 150.185C248.595 154.826 247.877 159.617 247.75 164.444C247.75 164.444 244.697 167.03 239.075 167.548C233.758 168.008 226.137 166.581 216.623 159.272C197.044 144.273 179.473 148.411 179.473 148.411C179.473 148.411 182.987 127.722 191.02 121.516C199.052 115.309 205.077 107.551 215.117 83.7592C225.158 59.9674 245.742 65.6567 245.742 65.6567C245.742 65.6567 246.746 61.0018 265.321 65.6567C269.846 66.8784 274.033 69.164 277.556 72.334C287.491 80.9404 292.311 94.2897 290.664 107.551Z" fill="white"/>
<path id="Vector_48" d="M272.033 77.3192C272.008 78.0071 271.952 78.7726 271.862 79.626C270.858 88.9358 269.854 87.9014 258.809 89.9702C251.941 91.2581 248.372 85.3464 246.655 80.6914C246.033 79.0052 245.564 77.2634 245.254 75.4883L269.352 71.3506C269.352 71.3506 272.238 70.5179 272.033 77.3192Z" fill="#DB8B8B"/>
<path id="Vector_49" opacity="0.05" d="M249.889 150.21C248.595 154.852 247.877 159.643 247.75 164.47C247.75 164.47 244.698 167.056 239.075 167.573C238.916 167.244 238.795 166.897 238.713 166.539C237.709 161.884 230.179 153.608 230.179 153.608C225.158 148.953 224.154 140.678 224.154 140.678L215.871 115.593L213.109 113.266C213.109 113.266 224.656 103.956 234.697 111.714C244.738 119.472 241.726 136.023 241.726 136.023L243.734 141.712C245.817 143.523 247.936 146.714 249.889 150.21Z" fill="black"/>
<path id="Vector_50" d="M214.613 112.748L225.658 140.16C225.658 140.16 226.662 148.436 231.683 153.091C231.683 153.091 239.213 161.366 240.217 166.021C241.221 170.676 255.278 183.089 255.278 183.089C255.278 183.089 268.331 195.502 269.335 200.157C269.335 200.157 281.384 203.778 279.878 211.019C279.878 211.019 288.915 201.709 279.878 192.916C270.842 184.124 258.793 166.021 258.793 166.021C258.793 166.021 251.764 146.884 245.238 141.195L243.229 135.506C243.229 135.506 246.242 118.955 236.201 111.197C226.16 103.438 214.613 112.748 214.613 112.748Z" fill="#DB8B8B"/>
<path id="Vector_51" opacity="0.1" d="M221.14 308.773L208.087 316.014L204.07 312.911V310.842C208.581 310.512 212.963 309.15 216.897 306.854C218.102 306.151 219.237 305.458 220.146 304.848C220.673 307.242 221.14 308.773 221.14 308.773Z" fill="black"/>
<path id="Vector_52" opacity="0.1" d="M236.201 91.0254L243.229 119.472C243.229 119.472 221.642 123.093 217.123 119.472C212.605 115.852 204.07 114.817 204.07 114.817C204.07 114.817 213.107 87.9221 218.127 84.8189C223.148 81.7156 236.201 91.0254 236.201 91.0254Z" fill="black"/>
<path id="Vector_53" d="M236.201 89.9922L243.229 118.439C243.229 118.439 221.642 122.059 217.123 118.439C212.605 114.818 204.07 113.784 204.07 113.784C204.07 113.784 213.107 86.8889 218.127 83.7857C223.148 80.6824 236.201 89.9922 236.201 89.9922Z" fill="white"/>
<path id="Vector_54" opacity="0.1" d="M272.033 76.8016C270.627 78.8013 268.838 80.4834 266.778 81.7446C264.717 83.0058 262.428 83.8193 260.051 84.1352C257.674 84.4511 255.259 84.2626 252.955 83.5813C250.651 82.9001 248.507 81.7405 246.655 80.1739C246.033 78.4876 245.564 76.7458 245.254 74.9707L269.352 70.833C269.352 70.833 272.238 70.0003 272.033 76.8016Z" fill="black"/>
<path id="Vector_55" d="M275.361 65.683C275.361 70.4841 273.51 75.0885 270.215 78.4834C266.92 81.8783 262.45 83.7855 257.79 83.7855C253.13 83.7855 248.661 81.8783 245.365 78.4834C242.07 75.0885 240.219 70.4841 240.219 65.683C240.219 65.383 240.219 65.0831 240.219 64.7831C240.335 59.982 242.297 55.425 245.674 52.1145C249.051 48.804 253.567 47.0113 258.227 47.1306C262.887 47.2499 267.31 49.2716 270.524 52.7509C273.737 56.2301 275.477 60.882 275.361 65.683V65.683Z" fill="#DB8B8B"/>
<path id="Vector_56" opacity="0.05" d="M193.277 121.283C193.277 121.283 206.33 124.904 210.347 134.214C214.363 143.523 225.227 145.225 225.227 145.225" fill="black"/>
<path id="Vector_57" d="M242.478 326.098H212.355V335.925H242.478V326.098Z" fill="#4E4E4E"/>
<path id="Vector_58" opacity="0.1" d="M242.478 326.098H212.355V335.925H242.478V326.098Z" fill="black"/>
<path id="Vector_59" d="M216.878 307.862C219.574 306.31 221.939 304.759 222.145 304.117C222.145 304.117 228.947 311.513 235.007 313.81C237.044 314.585 238.995 315.584 240.826 316.789C243.225 318.341 246.649 320.166 249.757 320.166C249.757 320.166 256.785 326.373 243.23 327.407C229.675 328.442 198.047 324.821 198.047 324.821L200.055 311.891C205.922 312.245 211.764 310.846 216.878 307.862Z" fill="#ABB1D1"/>
</g>
<g id="cap">
<path id="Vector_60" opacity="0.1" d="M275.364 65.683C275.365 67.3514 275.142 69.012 274.701 70.6172C273.343 70.9222 271.926 70.7886 270.644 70.2345C268.767 69.4742 267.155 68.1656 265.353 67.2243C260.277 64.5762 254.238 65.0986 248.615 65.9727C245.824 66.4071 242.656 66.8105 240.462 64.9796C240.386 64.9183 240.314 64.8527 240.246 64.7831C240.362 59.982 242.324 55.425 245.701 52.1145C249.079 48.804 253.594 47.0113 258.254 47.1306C262.914 47.2499 267.338 49.2716 270.551 52.7509C273.764 56.2301 275.505 60.882 275.389 65.683H275.364Z" fill="black"/>
<path id="Vector_61" d="M227.508 54.4854C228.578 57.9404 233.714 58.049 236.349 60.5937C237.72 61.9178 238.358 63.8728 239.864 65.0521C241.957 66.6968 244.979 66.3348 247.645 65.9417C253.012 65.1555 258.775 64.6849 263.615 67.0692C265.332 67.9123 266.873 69.0915 268.666 69.7794C270.458 70.4673 272.682 70.5501 274.138 69.3294C275.303 68.3519 275.729 66.7434 276.784 65.6676C277.602 64.8193 278.741 64.3435 279.675 63.5987C281.724 62.0057 282.607 59.4093 283.19 56.9267C284.394 51.8166 284.741 46.3083 282.687 41.462C280.634 36.6157 275.694 32.6694 270.302 32.9228C268.65 33.0004 267.039 33.4401 265.392 33.6262C261.1 34.0762 256.858 32.5918 252.55 32.3384C251.301 32.1818 250.033 32.3599 248.87 32.8556C247.993 33.3577 247.237 34.0558 246.656 34.8986C244.684 37.5599 243.334 40.6535 242.71 43.9395C242.208 46.4169 242.183 48.6616 239.236 49.0444C235.887 49.4995 225.244 47.1772 227.508 54.4854Z" fill="#472727"/>
</g>
</g>
<defs>
<linearGradient id="paint0_linear" x1="447.86" y1="58.5398" x2="25.6847" y2="330.735" gradientUnits="userSpaceOnUse">
<stop stop-color="#6C63FF" stop-opacity="0.89"/>
<stop offset="1" stop-color="#952EE7" stop-opacity="0.65"/>
</linearGradient>
</defs>
</svg>
